<svg  xmlns="http://www.w3.org/2000/svg" xmlns:xlink="http://www.w3.org/1999/xlink"  viewBox="0 0 528.4 637.32"><defs><style>.cls-11{fill:#ffc600;}.cls-11,.cls-2,.cls-3{fill-rule:evenodd;}.cls-2{fill:#fffffe;}.cls-3,.cls-4{fill:#171717;}.cls-5{fill:#fff;}</style></defs><g id="Layer_2" data-name="Layer 2"><g id="Layer_1-2" data-name="Layer 1"><g id="Group-4"><path id="Combined-Shape" class="cls-11" d="M188.16,565.56a7.93,7.93,0,0,1,4,14.76c.66,1.3,1.25,2.63,1.8,4a52.53,52.53,0,0,1,3.81,16.32c0,.68.07,1.37.07,2.06a45.59,45.59,0,0,1-2.55,15,19.26,19.26,0,0,1-2,4,14.88,14.88,0,0,1-2.12,2.3,13.69,13.69,0,0,1-2.34,1.66,8.39,8.39,0,0,1-2.92,1,4.26,4.26,0,0,1-3-.63,5.1,5.1,0,0,1-1.85-2.76,19.78,19.78,0,0,1-.41-7.39,52.53,52.53,0,0,1,1.11-6.58c.88-3.82,1.75-6.31,1.75-6.31h0c0,.13-1.06,2.52-2.18,6.18a53,53,0,0,0-1.58,6.57,20.57,20.57,0,0,0-.07,7.91,6.7,6.7,0,0,0,2.21,3.75,6.85,6.85,0,0,0,4.13,1.32,10.82,10.82,0,0,0,3.89-.77c.14,0,.25-.12.38-.17a45.68,45.68,0,0,1-7,8.23c-1.39,1-4.13,2.19-8,.19a31.68,31.68,0,0,0-11.44-3.3,31.55,31.55,0,0,0-11.44,3.3c-3.29,1.71-5.76,1.09-7.28.25a45.64,45.64,0,0,1-7.52-8.7l.4.19a10.71,10.71,0,0,0,3.9.76,6.74,6.74,0,0,0,4.12-1.32,6.65,6.65,0,0,0,2.22-3.75,20.92,20.92,0,0,0-.07-7.9,56.86,56.86,0,0,0-1.58-6.57c-1.16-3.78-2.19-6.19-2.19-6.19h0a65.27,65.27,0,0,1,1.75,6.29,54.43,54.43,0,0,1,1.11,6.58,19.57,19.57,0,0,1-.42,7.39,5.12,5.12,0,0,1-1.85,2.77,4.23,4.23,0,0,1-3,.62,8.32,8.32,0,0,1-2.92-1,13.16,13.16,0,0,1-2.34-1.66,14.11,14.11,0,0,1-1.68-1.72l0-.06c-.13-.15-.24-.3-.35-.45a21.65,21.65,0,0,1-2.31-4.87,45.49,45.49,0,0,1-2.28-14.22c0-.69,0-1.38.07-2.06a52.31,52.31,0,0,1,3.81-16.33c.55-1.35,1.14-2.68,1.8-4a7.93,7.93,0,0,1,4-14.76h48.39ZM164,552.36c3.46,0,4.69,1,4.69,1h0l-1.93,5.36a27.51,27.51,0,0,1,13,4.87H148.16a27.51,27.51,0,0,1,13.06-4.87h0l-1.94-5.36S160.51,552.36,164,552.36Z"></path><path id="Combined-Shape-2" data-name="Combined-Shape" class="cls-2" d="M163.81,583.58a9.82,9.82,0,1,1-9.84,9.81A9.83,9.83,0,0,1,163.81,583.58ZM149.61,572a7.25,7.25,0,1,1-7.26,7.24A7.26,7.26,0,0,1,149.61,572Zm28.73,0a7.25,7.25,0,1,1-7.26,7.24A7.25,7.25,0,0,1,178.34,572Z"></path><path id="Combined-Shape-3" data-name="Combined-Shape" class="cls-3" d="M164,585.83c4.14,0,4.8,1.16,4.83,1.21h0a1.35,1.35,0,0,1,.19.33h0l0,.1a1.76,1.76,0,0,1,.06.39v0a3.5,3.5,0,0,1-1.6,2.83,7.61,7.61,0,0,1-2.92,1.56h0v10.87l-.64,0h-.33l-.32,0V592.31a7.61,7.61,0,0,1-2.92-1.56,3.46,3.46,0,0,1-1.59-2.84s0,0,0,0a1.51,1.51,0,0,1,.06-.37l0-.12h0a1.4,1.4,0,0,1,.79-.79,8.92,8.92,0,0,1,4.29-.76H164Zm-14.26-9.65a3.22,3.22,0,1,1-3.22,3.21,3.59,3.59,0,0,1,.1-.81,1.76,1.76,0,0,0,2.47-2.34A3.49,3.49,0,0,1,149.77,576.18Zm28.41,0a3.22,3.22,0,1,1-3.23,3.21,3.1,3.1,0,0,1,.11-.81,1.71,1.71,0,0,0,.9.25,1.76,1.76,0,0,0,1.56-2.59A3.52,3.52,0,0,1,178.18,576.18Zm-38.32-6.76a3.86,3.86,0,0,1,2.49.92,52.88,52.88,0,0,0-4.58,6.48,4,4,0,0,1,2.09-7.4Zm48.24,0a4,4,0,0,1,2.08,7.4,53.66,53.66,0,0,0-4.58-6.48A3.88,3.88,0,0,1,188.1,569.42Z"></path><path id="Fill-13" class="cls-2" d="M135.25,618.66a12.39,12.39,0,0,1-1.09-1.86,20.34,20.34,0,0,1-1.53-4.48,26,26,0,0,1-.6-4.7,20.81,20.81,0,0,1,.05-2.16s.06.21.15.58l.34,1.51c.27,1.25.6,2.91,1,4.55s.77,3.28,1.11,4.5c.18.62.32,1.13.42,1.49s.17.57.17.57"></path><path id="Fill-14" class="cls-2" d="M184.63,608.36s0,.57-.11,1.41-.28,1.92-.51,3-.51,2.14-.75,2.94c-.12.4-.25.73-.32,1s-.14.37-.14.37a9.07,9.07,0,0,1-.1-1.42,15,15,0,0,1,.34-3.06,16.44,16.44,0,0,1,.94-2.94,10.32,10.32,0,0,1,.65-1.27"></path><path id="Fill-15" class="cls-2" d="M139.77,566.53a9.61,9.61,0,0,0-1.36.7,12.16,12.16,0,0,0-1.26.85,11.31,11.31,0,0,0-1.26,1.16,13.36,13.36,0,0,0-1.07,1.34c-.29.47-.58.91-.78,1.32s-.4.75-.52,1a4,4,0,0,1-.21.39s0-.16,0-.44a5.67,5.67,0,0,1,.19-1.14,7.28,7.28,0,0,1,.57-1.56,8.11,8.11,0,0,1,1.1-1.57,6.67,6.67,0,0,1,3-1.85,4.57,4.57,0,0,1,1.57-.19"></path></g><g id="Group"><path id="Combined-Shape-4" data-name="Combined-Shape" class="cls-3" d="M416.26,585.77a12.17,12.17,0,0,1,9.84,4.44q3.69,4.42,3.7,11.57t-3.94,11.6a12.85,12.85,0,0,1-10,4.41,11.31,11.31,0,0,1-4.86-1,9.72,9.72,0,0,1-3-1.9l-.07-.08-.83-1H407a23.35,23.35,0,0,1,.12,2.42v12.87h-7.51V594.28a1.15,1.15,0,0,0-1.23-1.31h-5.34a1.67,1.67,0,0,0-1.69,1l0,.07-10.92,27.65a12.59,12.59,0,0,1-4.47,6,11.24,11.24,0,0,1-6.51,2,10.58,10.58,0,0,1-4.05-.78,9.31,9.31,0,0,1-2.67-1.49l-.08-.07-.89-.78,2.92-5.39a5.64,5.64,0,0,0,4.36,2.1c2.22,0,3.87-1.26,5-3.76l.06-.14,1-2.34-13.48-30.52h5.85a4.13,4.13,0,0,1,2.5.66,4.69,4.69,0,0,1,1.44,2.07l0,.15,7.16,18.13,6-17.63.17-.5a3.89,3.89,0,0,1,3.93-2.88h14c2.5,0,3.77.94,3.81,2.84v1.29h.12c.08-.11.19-.28.33-.5a9.51,9.51,0,0,1,1-1.17,10.72,10.72,0,0,1,1.83-1.47,11.13,11.13,0,0,1,2.74-1.17A12.6,12.6,0,0,1,416.26,585.77Zm-140.63,0a16.72,16.72,0,0,1,11.87,4.52,16.08,16.08,0,0,1,0,23,17.8,17.8,0,0,1-23.73,0,16.12,16.12,0,0,1,0-23A16.61,16.61,0,0,1,275.63,585.77Zm70.82,0q6.33,0,9.9,4.11a15.09,15.09,0,0,1,3.58,10.17v.23l-.17,2.82h-21a8.76,8.76,0,0,0,3,6,9.23,9.23,0,0,0,6.14,2.16,11.16,11.16,0,0,0,4.3-.87,12.61,12.61,0,0,0,3.07-1.64l.09-.07,1.07-.84,3.16,5.28c-.11.12-.29.29-.53.51a14.21,14.21,0,0,1-1.58,1.11,20.8,20.8,0,0,1-2.54,1.38,19.52,19.52,0,0,1-3.37,1.11,17.37,17.37,0,0,1-4.2.51q-7.34,0-11.84-4.65A15.72,15.72,0,0,1,331,601.78a16,16,0,0,1,4.3-11.54A14.76,14.76,0,0,1,346.45,585.77Zm103.49,0a16.76,16.76,0,0,1,11.87,4.52,16.1,16.1,0,0,1,0,23,17.82,17.82,0,0,1-23.74,0,16.14,16.14,0,0,1,0-23A16.63,16.63,0,0,1,449.94,585.77Zm30.29-7.62v8.34h6.93v6h-6.93V604.9q0,3.3,1.88,4.53a7.48,7.48,0,0,0,4,1.22h.18l1.37-.12v6.66a12.7,12.7,0,0,1-2.32.18,20.64,20.64,0,0,1-3-.21,15.57,15.57,0,0,1-3.28-.93,10.82,10.82,0,0,1-3.19-1.89,9.13,9.13,0,0,1-2.27-3.36,13,13,0,0,1-.92-4.88V592.54h-3.94v-6h4.12v-8.34Zm-260.77-3.43h3.76a3.48,3.48,0,0,1,4.06,3.93v14.12H246v-14c0-2.67,1.31-4,3.93-4.08h3.88V617.3H246V599.43H227.28V617.3h-7.82V574.72h0Zm95.84,11q10.62,0,10.62,11.63h0v19.67H322.4a4.26,4.26,0,0,1-3.11-1,4.33,4.33,0,0,1-1-3.12h0V599a8.56,8.56,0,0,0-1-4.65,4.15,4.15,0,0,0-3.73-1.59,8.1,8.1,0,0,0-5.16,1.71,8.72,8.72,0,0,0-3,4.53,12.87,12.87,0,0,0-.6,4.08h0v14h-7.51V586.49h3.28q4,0,4,3.42h0v.89l-.12,1.32h.12a12.25,12.25,0,0,1,3.94-4.43A11.39,11.39,0,0,1,315.3,585.77Zm99.29,6.53a7.08,7.08,0,0,0-5.43,2.43Q407,597.16,407,602a11.22,11.22,0,0,0,2,6.63,6.41,6.41,0,0,0,5.55,2.78,6.93,6.93,0,0,0,5.48-2.55,10.21,10.21,0,0,0,2.21-6.92,10.85,10.85,0,0,0-2.09-7A6.68,6.68,0,0,0,414.59,592.3Zm-139-.06a8.57,8.57,0,0,0-6.38,2.7,10.26,10.26,0,0,0,0,13.7,9,9,0,0,0,12.83,0,10.22,10.22,0,0,0,0-13.7A8.67,8.67,0,0,0,275.63,592.24Zm174.31,0a8.54,8.54,0,0,0-6.38,2.7,10.24,10.24,0,0,0,0,13.7,8.55,8.55,0,0,0,6.38,2.67,8.65,8.65,0,0,0,6.44-2.67,10.22,10.22,0,0,0,0-13.7A8.67,8.67,0,0,0,449.94,592.24Zm-103.49-.6a7.23,7.23,0,0,0-4.86,1.65,8,8,0,0,0-2.55,4.34l0,.19h13.18a6.45,6.45,0,0,0-1.7-4.44A5.34,5.34,0,0,0,346.45,591.64Z"></path></g><path class="cls-4" d="M46.51,576.84H51.9v12.83c0,1.39-.11,2.39-.11,2.39h.11s2.39-4.78,9-4.78c7.56,0,12.33,6,12.33,14.72,0,8.93-5.39,14.71-12.77,14.71a10.09,10.09,0,0,1-8.83-4.83h-.11a19.06,19.06,0,0,1,.11,2.11v2H46.51ZM59.67,612.1c4.44,0,8.11-3.66,8.11-10.05,0-6.11-3.28-10-7.94-10-4.22,0-8.11,2.94-8.11,10.11C51.73,607.1,54.34,612.1,59.67,612.1Z"></path><path class="cls-4" d="M76.66,621.87A6.24,6.24,0,0,0,79.94,623c2.16,0,4-1.56,5-4.11l1.39-3.22L74.61,588h6l7,18.38c.55,1.44,1.05,3.38,1.05,3.38h.12s.44-1.88.94-3.33L96.65,588h5.83L89.32,621.1c-1.72,4.33-5.16,6.6-9.11,6.6A9.85,9.85,0,0,1,74.77,626Z"></path><circle cx="264.2" cy="264.2" r="264.2"></circle><path class="cls-5" d="M122.1,273.47c0-32.29,16.73-52.66,47.1-52.66,20.37,0,34.41,9.8,40.36,26.33l-23.06,10c-1.73-7.69-7.31-13.84-17.3-13.84-11.54,0-17.49,8.26-17.49,20.95v18.84c0,12.68,5.95,20.76,17.49,20.76,11.34,0,16-6.92,18.84-15l22.1,9.61c-6.73,19.23-21.14,27.88-40.94,27.88C138.83,326.34,122.1,305.77,122.1,273.47Z"></path><path class="cls-5" d="M285.59,307.11h-1c-3.46,10.19-11.73,19.23-28.26,19.23-20.57,0-31.52-14.42-31.52-39.79V223.11H253.3v60.94c0,12.3,4,19.22,14.41,19.22,8.85,0,17.88-5,17.88-14.61V223.11H314V324H285.59Z"></path><circle class="cls-5" cx="89.21" cy="308.78" r="17"></circle><path class="cls-5" d="M445.21,245.22V223.11h-20V195.82H397v27.29H382.55v22.11h14.22v6.88h0v42.52c0,19.22,10.38,29.41,30,29.41h16.91V301.92H425.22v-56.7Z"></path><rect class="cls-5" x="336.26" y="181.78" width="28.45" height="142.24"></rect></g></g></svg>